<?xml version="1.0" standalone="no"?><!DOCTYPE svg PUBLIC "-//W3C//DTD SVG 1.1//EN" "http://www.w3.org/Graphics/SVG/1.1/DTD/svg11.dtd"><svg t="1617458551719" class="icon" viewBox="0 0 1024 1024" version="1.1" xmlns="http://www.w3.org/2000/svg" p-id="2056" xmlns:xlink="http://www.w3.org/1999/xlink" width="200" height="200"><defs><style type="text/css"></style></defs><path d="M686.6 691.2c-19.4-12.7-27.9-23.6-51.6-23.6H511.8 388.6c-23.7 0-32.1 10.9-51.6 23.6-11.1 7.2-45.2 33.9-72.5 55.6C330.1 806 416.9 842 512.1 842c95.1 0 181.8-36 247.3-95-27.4-21.7-61.7-48.5-72.8-55.8z" fill="#003DF0" p-id="2057"></path><path d="M682.4 404.8h-21.6l-10.1 84c27.9-3.8 41.8-55.8 44.4-65.9 2.5-10.2-3.8-18.1-12.7-18.1zM341.4 404.8c-8.9 0-15.2 7.9-12.7 18.1 2.5 10.1 16.5 62.1 44.4 65.9l-10.1-84h-21.6zM623.1 679.3l-22.7-15.1h-1.3v-47.7H424.6v47.7h-1.3l-22.7 15.1c-2.5 1.7-2.5 5.3-0.1 7.1l71.7 49.7s8.5 9.3 15.2 30.4c4.5 14.1 13.8 39.1 19.5 54.2 1.7 4.4 7.9 4.4 9.6 0 5.7-15.1 15-40.1 19.5-54.2 6.8-21.1 15.2-30.4 15.2-30.4l71.7-49.7c2.7-1.8 2.7-5.5 0.2-7.1z" fill="#D3E0EA" p-id="2058"></path><path d="M662 464.7c-1.3 27-28.2 122.8-50.6 149.6 0 0-34.1 25.4-99.4 25.4s-99.4-25.4-99.4-25.4c-26.7-23.5-49.3-122.6-50.6-149.6l-13-157.3c0-44.4 28.9-98.9 71.3-112.1 0 0 51.7-13.3 91.6-13.3s91.6 13.3 91.6 13.3c42.4 13.2 71.3 67.6 71.3 112.1L662 464.7z" fill="#3E4959" p-id="2059"></path><path d="M662.5 351.5s-4.2-5.1-8.5-22.8c-11-38-71.8-37.2-98-26.2-26.2 11-92.1 32.1-108.2 31.3s-35.5-11-40.6-17.7c-5.1-6.8-18.5-15.7-29.6-11.8-19.4 6.8-16.1 52.4-15.2 81.1 0.8 28.7 15.2 72.7 22 93.8 6.8 21.1 33.8 34.7 49 34.7 15.2 0 35.5-5.1 43.9-11.8s79.4-4.2 86.2 2.5c6.8 6.8 18.6 9.3 45.6 9.3s33.3-29.2 43.1-56.6c10.9-30.2 10.3-105.8 10.3-105.8zM566.2 545c-4.2-0.8-18.6-4.2-49.8-4.2-31.2 0-45.6 3.4-49.8 4.2-4.2 0.8-11 9.3-11 16.9 0 7.6 0.8 24.5 12.7 27 11.8 2.5 20.3-6.8 26.2-9.3 3.9-1.7 11-1.9 17.5-1.8v0.1c1.3 0 2.9 0 4.5-0.1 1.6 0 3.2 0.1 4.5 0.1v-0.1c6.5-0.1 13.5 0.1 17.5 1.8 5.9 2.5 14.4 11.8 26.2 9.3 11.8-2.5 12.7-19.4 12.7-27-0.2-7.6-7-16.1-11.2-16.9z" fill="#EBF1F7" p-id="2060"></path></svg>