<?xml version="1.0" standalone="no"?><!DOCTYPE svg PUBLIC "-//W3C//DTD SVG 1.1//EN" "http://www.w3.org/Graphics/SVG/1.1/DTD/svg11.dtd"><svg t="1617781038517" class="icon" viewBox="0 0 1024 1024" version="1.1" xmlns="http://www.w3.org/2000/svg" p-id="4781" xmlns:xlink="http://www.w3.org/1999/xlink" width="200" height="200"><defs><style type="text/css"></style></defs><path d="M659.10784 324.33152c-11.01824-11.3152-17.28-24.30464-17.28-38.1184 0-12.19072 4.89984-23.72608 13.60384-34.05312 49.3568-17.30048 80.87552-43.648 80.87552-73.14432 0-14.09536-7.23968-27.47392-20.15232-39.48544H317.11744c-12.89216 12.01664-20.13696 25.38496-20.13696 39.48544 0 30.82752 34.42688 58.2144 87.64928 75.42784 7.552 9.74848 11.776 20.48 11.776 31.7696 0 13.06112-5.62688 25.38496-15.55968 36.27008-178.8672 47.17056-308.36224 185.00096-308.36224 347.7248 0 101.13024 70.60992 223.53408 151.38816 289.65888h585.53856c80.7936-66.1248 151.3984-188.53376 151.3984-289.65888 0-160.68096-126.29504-297.0624-301.70112-345.87648z m131.23072 584.05376H242.94912c-63.59552-57.472-118.98368-161.36704-118.98368-238.1824 0-135.60832 108.5184-255.34976 270.01344-297.9584l14.68928-3.87584 10.23488-11.20256c18.97984-20.80768 28.98944-45.34272 28.98944-70.95808 0-22.36928-7.80288-44.26752-22.57408-63.3088l-9.728-12.544-15.09376-4.8896c-14.81216-4.80256-25.8816-9.84576-33.9456-14.44864h300.16c-6.99904 3.99872-16.26624 8.3456-28.29824 12.55936l-13.26592 4.64384-9.05216 10.75712c-16.84992 19.96288-25.73824 43.2128-25.73824 67.2256 0 26.99264 11.01824 52.5824 31.86688 74.02496l9.70752 9.97888 13.39904 3.73248c157.91104 43.9552 264.01792 163.00032 264.01792 296.26368-0.01536 76.81536-55.40352 180.7104-119.00928 238.1824zM721.50528 103.81312a14.1824 14.1824 0 0 1-14.1824 14.1824H325.97504a14.1824 14.1824 0 0 1-14.18752-14.1824v-26.78784a14.1824 14.1824 0 0 1 14.18752-14.1824h381.35296a14.1824 14.1824 0 0 1 14.1824 14.1824v26.78784z" p-id="4782"></path><path d="M694.61504 751.04256c16.01024 0 30.1312 9.4976 30.1312 23.07072 0 11.53024-14.12096 21.71392-30.1312 21.71392h-147.82976v78.72c0 11.53024-12.25216 21.71392-31.08352 21.71392-16.94208 0-30.1312-10.17856-30.1312-21.71392v-78.72H337.73568c-16.01024 0-29.19424-10.17344-29.19424-23.07584 0-12.2112 13.184-21.7088 29.19424-21.7088h147.83488v-67.86048H337.73568c-16.01024 0-29.19424-8.832-29.19424-23.08096 0-11.53024 13.184-21.02784 29.19424-21.02784h125.2352L338.70336 468.7104c-8.4736-10.17856-11.1616-34.75968 4.66944-43.36128 23.31136-12.672 36.736 4.0448 44.27264 13.54752l129.94048 180.50048 129.00352-181.18656c7.53152-10.17856 27.2128-21.20192 40.48896-12.87168 19.97312 12.53888 13.53216 32.44544 6.00064 42.62912l7.17824-10.08128-128.9984 181.18144h123.36128c16 0 30.12608 9.50784 30.12608 22.39488s-14.12608 21.72416-30.12608 21.72416h-147.83488v67.85536h147.82976z" p-id="4783"></path></svg>